<svg width="1292" height="273" viewBox="0 0 1292 273" fill="none" xmlns="http://www.w3.org/2000/svg">
<path d="M62.3578 6.8319L9.32638 42.5545C3.8084 46.2714 0.5 52.489 0.5 59.1421V153.82C0.5 160.216 3.55932 166.227 8.73088 169.991L73.8054 217.352C80.5403 222.254 89.608 222.468 96.5669 217.89L133.82 193.382C138.926 190.022 142 184.32 142 178.208C142 163.171 124.772 154.647 112.819 163.77L96.8177 175.981C89.8021 181.335 80.1066 181.458 72.9576 176.284L40.7733 152.988C35.5769 149.227 32.5 143.202 32.5 136.787V79.8631C32.5 73.3647 35.6573 67.2713 40.9663 63.5238L81.6496 34.8062C91.0055 28.202 91.2823 14.4221 82.1991 7.44755C76.4053 2.99869 68.4163 2.75081 62.3578 6.8319Z" fill="url(#paint0_linear_204_345)"/>
<path d="M125.689 97.8743L105.388 111.408C93.4672 119.355 77.5 110.81 77.5 96.4829C77.5 90.2759 80.7089 84.51 85.984 81.2386L130.439 53.6696C137.416 49.3428 146.328 49.7191 152.916 54.6184L213.936 100.002C219.01 103.776 222 109.727 222 116.05V208.972C222 215.283 219.021 221.224 213.964 224.999L159.682 265.519C154.442 269.431 147.344 269.746 141.778 266.313C131.985 260.274 131.619 246.166 141.087 239.627L181.866 211.463C187.272 207.729 190.5 201.577 190.5 195.007V139.962C190.5 133.688 187.556 127.778 182.548 123.999L148.831 98.5515C142.045 93.43 132.762 93.1583 125.689 97.8743Z" fill="url(#paint1_linear_204_345)"/>
<path d="M357.48 29.7L338.58 39.42C334.26 32.22 322.38 25.38 308.7 25.38C291.06 25.38 282.6 32.76 282.6 42.12C282.6 53.1 295.56 56.16 310.68 57.96C336.96 61.2 361.44 68.04 361.44 98.1C361.44 126.18 336.6 138.24 308.52 138.24C282.78 138.24 262.98 130.32 253.62 107.28L273.42 97.02C279 110.88 293.58 117 308.88 117C323.82 117 337.86 111.78 337.86 98.1C337.86 86.22 325.44 81.36 308.7 79.56C282.96 76.5 259.2 69.66 259.2 41.4C259.2 15.48 284.76 4.85999 307.98 4.67999C327.6 4.67999 347.94 10.26 357.48 29.7ZM439.044 6.47999C482.424 6.47999 504.024 39.78 503.664 72.72C503.304 105.3 483.324 137.88 439.044 137.88C394.764 137.88 374.244 106.02 374.244 72.9C374.244 39.78 395.484 6.47999 439.044 6.47999ZM439.044 28.08C409.344 28.08 397.104 52.02 397.644 73.26C398.184 93.96 409.344 116.1 439.044 116.1C468.744 116.1 479.904 93.78 480.264 73.08C480.624 51.84 468.744 28.08 439.044 28.08ZM544.912 135H521.152V9.17999H611.692V32.04H544.912V66.42H608.092V88.38H544.912V135ZM666.232 135V30.6H626.272V8.99999C662.632 8.99999 693.412 8.99999 729.952 8.99999V30.6H689.992V135H666.232ZM854.194 135.18V43.74L813.154 98.46H808.474L768.334 43.56V135.18H744.574V9.17999H771.934L811.354 63.36L850.774 9.17999H877.954V135.18H854.194ZM994.272 111.6V135H899.952C899.952 93.06 899.952 50.94 899.952 8.99999H994.272V32.04H923.532V61.02H991.752V83.16H923.532V111.6H994.272ZM1099.3 87.12V8.81999H1123.06V135H1108.3V135.18L1042.06 50.04V135H1018.3V8.99999H1037.56L1099.3 87.12ZM1135.64 49.5L1144.28 8.99999H1166.96L1152.92 49.5H1135.64ZM1277.87 29.7L1258.97 39.42C1254.65 32.22 1242.77 25.38 1229.09 25.38C1211.45 25.38 1202.99 32.76 1202.99 42.12C1202.99 53.1 1215.95 56.16 1231.07 57.96C1257.35 61.2 1281.83 68.04 1281.83 98.1C1281.83 126.18 1256.99 138.24 1228.91 138.24C1203.17 138.24 1183.37 130.32 1174.01 107.28L1193.81 97.02C1199.39 110.88 1213.97 117 1229.27 117C1244.21 117 1258.25 111.78 1258.25 98.1C1258.25 86.22 1245.83 81.36 1229.09 79.56C1203.35 76.5 1179.59 69.66 1179.59 41.4C1179.59 15.48 1205.15 4.85999 1228.37 4.67999C1247.99 4.67999 1268.33 10.26 1277.87 29.7Z" fill="url(#paint2_linear_204_345)"/>
<path d="M466.185 213.32H452.475V208.845H484.828V213.32H471.118V249H466.185V213.32ZM519.8 249V208.845H548.023V213.435H524.734V225.997H547.048V230.644H524.734V244.239H548.941V249H519.8ZM618.842 243.665C614.826 247.681 609.836 249.631 603.927 249.631C597.216 249.631 592.053 247.681 588.439 243.723C584.825 239.764 582.99 234.889 582.99 229.152C582.932 225.481 583.678 222.096 585.169 218.999C586.661 215.901 589.013 213.377 592.282 211.312C595.495 209.247 599.396 208.214 603.927 208.214C609.606 208.214 614.482 210.222 618.612 214.238L615.171 217.45C612.13 214.467 608.402 212.976 603.927 212.976C598.765 212.976 594.806 214.582 592.053 217.679C589.3 220.834 587.923 224.62 587.98 229.095C588.038 233.569 589.414 237.298 592.168 240.338C594.864 243.378 598.765 244.87 603.927 244.87C608.402 244.87 612.245 243.321 615.343 240.223L618.842 243.665ZM654.807 208.845H658.306L682.915 239.592V208.845H687.848V249H684.406L659.74 218.368V249H654.807V208.845ZM745.138 208.157C751.563 208.214 756.554 210.28 760.11 214.352C763.667 218.483 765.445 223.358 765.445 229.037C765.445 231.734 764.986 234.315 764.126 236.724C763.265 239.191 762.003 241.428 760.397 243.378C758.791 245.329 756.668 246.935 754.03 248.082C751.391 249.229 748.408 249.803 745.081 249.803C741.754 249.803 738.713 249.229 736.075 248.082C733.436 246.935 731.256 245.329 729.65 243.378C728.044 241.428 726.782 239.191 725.921 236.782C725.061 234.372 724.659 231.791 724.659 229.037C724.659 223.072 726.495 218.138 730.224 214.123C733.952 210.165 738.943 208.157 745.138 208.157ZM760.454 229.037C760.454 226.227 759.938 223.645 758.905 221.236C757.816 218.827 756.095 216.819 753.685 215.213C751.276 213.607 748.465 212.804 745.138 212.746C740.205 212.746 736.419 214.352 733.723 217.45C730.969 220.548 729.65 224.448 729.65 229.037C729.65 233.512 730.969 237.298 733.665 240.395C736.304 243.55 740.148 245.099 745.138 245.099C750.071 245.099 753.857 243.55 756.496 240.338C759.135 237.183 760.454 233.397 760.454 229.037ZM807.24 208.845V244.354H829.095V249H802.249V208.845H807.24ZM880.649 208.157C887.073 208.214 892.064 210.28 895.62 214.352C899.177 218.483 900.955 223.358 900.955 229.037C900.955 231.734 900.496 234.315 899.636 236.724C898.775 239.191 897.513 241.428 895.907 243.378C894.301 245.329 892.179 246.935 889.54 248.082C886.901 249.229 883.918 249.803 880.591 249.803C877.264 249.803 874.224 249.229 871.585 248.082C868.946 246.935 866.767 245.329 865.16 243.378C863.554 241.428 862.292 239.191 861.432 236.782C860.571 234.372 860.17 231.791 860.17 229.037C860.17 223.072 862.005 218.138 865.734 214.123C869.463 210.165 874.453 208.157 880.649 208.157ZM895.965 229.037C895.965 226.227 895.448 223.645 894.416 221.236C893.326 218.827 891.605 216.819 889.196 215.213C886.786 213.607 883.976 212.804 880.649 212.746C875.715 212.746 871.929 214.352 869.233 217.45C866.48 220.548 865.16 224.448 865.16 229.037C865.16 233.512 866.48 237.298 869.176 240.395C871.815 243.55 875.658 245.099 880.649 245.099C885.582 245.099 889.368 243.55 892.007 240.338C894.645 237.183 895.965 233.397 895.965 229.037ZM971.03 214.066L968.162 217.393C966.613 215.901 964.778 214.754 962.655 213.951C960.475 213.148 958.353 212.689 956.288 212.689C951.297 212.689 947.397 214.295 944.586 217.507C941.718 220.72 940.341 224.62 940.341 229.267C940.341 233.684 941.718 237.413 944.471 240.453C947.224 243.55 951.24 245.042 956.403 245.042C960.533 245.042 964.204 243.723 967.359 240.969V231.447H954.854V227.03H971.891V242.919C967.646 247.509 962.426 249.746 956.345 249.746C952.903 249.746 949.806 249.229 947.052 248.082C944.299 246.992 942.119 245.501 940.456 243.55C938.792 241.657 937.53 239.478 936.67 237.068C935.809 234.659 935.408 232.02 935.408 229.267C935.35 223.129 937.243 218.081 941.029 214.066C944.815 210.05 949.863 208.042 956.288 208.042C962.024 208.042 966.958 210.05 971.03 214.066ZM1009.18 249V208.845H1014.17V249H1009.18ZM1067.2 208.845H1072.83L1090.84 249H1085.45L1081.49 240.166H1058.54L1054.64 249H1049.19L1067.2 208.845ZM1079.54 235.577L1070.01 213.893L1060.49 235.577H1079.54Z" fill="white"/>
<path d="M466.185 213.32H452.475V208.845H484.828V213.32H471.118V249H466.185V213.32ZM519.8 249V208.845H548.023V213.435H524.734V225.997H547.048V230.644H524.734V244.239H548.941V249H519.8ZM618.842 243.665C614.826 247.681 609.836 249.631 603.927 249.631C597.216 249.631 592.053 247.681 588.439 243.723C584.825 239.764 582.99 234.889 582.99 229.152C582.932 225.481 583.678 222.096 585.169 218.999C586.661 215.901 589.013 213.377 592.282 211.312C595.495 209.247 599.396 208.214 603.927 208.214C609.606 208.214 614.482 210.222 618.612 214.238L615.171 217.45C612.13 214.467 608.402 212.976 603.927 212.976C598.765 212.976 594.806 214.582 592.053 217.679C589.3 220.834 587.923 224.62 587.98 229.095C588.038 233.569 589.414 237.298 592.168 240.338C594.864 243.378 598.765 244.87 603.927 244.87C608.402 244.87 612.245 243.321 615.343 240.223L618.842 243.665ZM654.807 208.845H658.306L682.915 239.592V208.845H687.848V249H684.406L659.74 218.368V249H654.807V208.845ZM745.138 208.157C751.563 208.214 756.554 210.28 760.11 214.352C763.667 218.483 765.445 223.358 765.445 229.037C765.445 231.734 764.986 234.315 764.126 236.724C763.265 239.191 762.003 241.428 760.397 243.378C758.791 245.329 756.668 246.935 754.03 248.082C751.391 249.229 748.408 249.803 745.081 249.803C741.754 249.803 738.713 249.229 736.075 248.082C733.436 246.935 731.256 245.329 729.65 243.378C728.044 241.428 726.782 239.191 725.921 236.782C725.061 234.372 724.659 231.791 724.659 229.037C724.659 223.072 726.495 218.138 730.224 214.123C733.952 210.165 738.943 208.157 745.138 208.157ZM760.454 229.037C760.454 226.227 759.938 223.645 758.905 221.236C757.816 218.827 756.095 216.819 753.685 215.213C751.276 213.607 748.465 212.804 745.138 212.746C740.205 212.746 736.419 214.352 733.723 217.45C730.969 220.548 729.65 224.448 729.65 229.037C729.65 233.512 730.969 237.298 733.665 240.395C736.304 243.55 740.148 245.099 745.138 245.099C750.071 245.099 753.857 243.55 756.496 240.338C759.135 237.183 760.454 233.397 760.454 229.037ZM807.24 208.845V244.354H829.095V249H802.249V208.845H807.24ZM880.649 208.157C887.073 208.214 892.064 210.28 895.62 214.352C899.177 218.483 900.955 223.358 900.955 229.037C900.955 231.734 900.496 234.315 899.636 236.724C898.775 239.191 897.513 241.428 895.907 243.378C894.301 245.329 892.179 246.935 889.54 248.082C886.901 249.229 883.918 249.803 880.591 249.803C877.264 249.803 874.224 249.229 871.585 248.082C868.946 246.935 866.767 245.329 865.16 243.378C863.554 241.428 862.292 239.191 861.432 236.782C860.571 234.372 860.17 231.791 860.17 229.037C860.17 223.072 862.005 218.138 865.734 214.123C869.463 210.165 874.453 208.157 880.649 208.157ZM895.965 229.037C895.965 226.227 895.448 223.645 894.416 221.236C893.326 218.827 891.605 216.819 889.196 215.213C886.786 213.607 883.976 212.804 880.649 212.746C875.715 212.746 871.929 214.352 869.233 217.45C866.48 220.548 865.16 224.448 865.16 229.037C865.16 233.512 866.48 237.298 869.176 240.395C871.815 243.55 875.658 245.099 880.649 245.099C885.582 245.099 889.368 243.55 892.007 240.338C894.645 237.183 895.965 233.397 895.965 229.037ZM971.03 214.066L968.162 217.393C966.613 215.901 964.778 214.754 962.655 213.951C960.475 213.148 958.353 212.689 956.288 212.689C951.297 212.689 947.397 214.295 944.586 217.507C941.718 220.72 940.341 224.62 940.341 229.267C940.341 233.684 941.718 237.413 944.471 240.453C947.224 243.55 951.24 245.042 956.403 245.042C960.533 245.042 964.204 243.723 967.359 240.969V231.447H954.854V227.03H971.891V242.919C967.646 247.509 962.426 249.746 956.345 249.746C952.903 249.746 949.806 249.229 947.052 248.082C944.299 246.992 942.119 245.501 940.456 243.55C938.792 241.657 937.53 239.478 936.67 237.068C935.809 234.659 935.408 232.02 935.408 229.267C935.35 223.129 937.243 218.081 941.029 214.066C944.815 210.05 949.863 208.042 956.288 208.042C962.024 208.042 966.958 210.05 971.03 214.066ZM1009.18 249V208.845H1014.17V249H1009.18ZM1067.2 208.845H1072.83L1090.84 249H1085.45L1081.49 240.166H1058.54L1054.64 249H1049.19L1067.2 208.845ZM1079.54 235.577L1070.01 213.893L1060.49 235.577H1079.54Z" fill="url(#paint3_linear_204_345)"/>
<defs>
<linearGradient id="paint0_linear_204_345" x1="222" y1="272" x2="0.5" y2="272" gradientUnits="userSpaceOnUse">
<stop stop-color="white"/>
<stop offset="1" stop-color="white"/>
</linearGradient>
<linearGradient id="paint1_linear_204_345" x1="222" y1="272" x2="0.5" y2="272" gradientUnits="userSpaceOnUse">
<stop stop-color="white"/>
<stop offset="1" stop-color="white"/>
</linearGradient>
<linearGradient id="paint2_linear_204_345" x1="1292" y1="180" x2="252" y2="180" gradientUnits="userSpaceOnUse">
<stop stop-color="white"/>
<stop offset="1" stop-color="white"/>
</linearGradient>
<linearGradient id="paint3_linear_204_345" x1="1092.5" y1="273" x2="451.5" y2="273" gradientUnits="userSpaceOnUse">
<stop stop-color="white"/>
<stop offset="1" stop-color="white"/>
</linearGradient>
</defs>
</svg>
