<svg width="1041" height="565" viewBox="0 0 1041 565" fill="none" xmlns="http://www.w3.org/2000/svg">
<path d="M471.608 6.8319L418.576 42.5545C413.058 46.2714 409.75 52.489 409.75 59.1421V153.82C409.75 160.216 412.809 166.227 417.981 169.991L483.055 217.352C489.79 222.254 498.858 222.468 505.817 217.89L543.07 193.382C548.176 190.022 551.25 184.32 551.25 178.208C551.25 163.171 534.022 154.647 522.069 163.77L506.068 175.981C499.052 181.335 489.357 181.458 482.208 176.284L450.023 152.988C444.827 149.227 441.75 143.202 441.75 136.787V79.8631C441.75 73.3647 444.907 67.2713 450.216 63.5238L490.9 34.8062C500.256 28.202 500.532 14.4221 491.449 7.44755C485.655 2.99869 477.666 2.75081 471.608 6.8319Z" fill="url(#paint0_linear_204_341)"/>
<path d="M534.939 97.8743L514.638 111.408C502.717 119.355 486.75 110.81 486.75 96.4829C486.75 90.2759 489.959 84.51 495.234 81.2386L539.689 53.6696C546.666 49.3428 555.578 49.7191 562.166 54.6184L623.186 100.002C628.26 103.776 631.25 109.727 631.25 116.05V208.972C631.25 215.283 628.271 221.224 623.214 224.999L568.932 265.519C563.692 269.431 556.594 269.746 551.028 266.313C541.235 260.274 540.869 246.166 550.337 239.627L591.116 211.463C596.522 207.729 599.75 201.577 599.75 195.007V139.962C599.75 133.688 596.806 127.778 591.798 123.999L558.081 98.5515C551.295 93.43 542.012 93.1583 534.939 97.8743Z" fill="url(#paint1_linear_204_341)"/>
<path d="M105.98 321.7L87.08 331.42C82.76 324.22 70.88 317.38 57.2 317.38C39.56 317.38 31.1 324.76 31.1 334.12C31.1 345.1 44.06 348.16 59.18 349.96C85.46 353.2 109.94 360.04 109.94 390.1C109.94 418.18 85.1 430.24 57.02 430.24C31.28 430.24 11.48 422.32 2.12 399.28L21.92 389.02C27.5 402.88 42.08 409 57.38 409C72.32 409 86.36 403.78 86.36 390.1C86.36 378.22 73.94 373.36 57.2 371.56C31.46 368.5 7.7 361.66 7.7 333.4C7.7 307.48 33.26 296.86 56.48 296.68C76.1 296.68 96.44 302.26 105.98 321.7ZM187.544 298.48C230.924 298.48 252.524 331.78 252.164 364.72C251.804 397.3 231.824 429.88 187.544 429.88C143.264 429.88 122.744 398.02 122.744 364.9C122.744 331.78 143.984 298.48 187.544 298.48ZM187.544 320.08C157.844 320.08 145.604 344.02 146.144 365.26C146.684 385.96 157.844 408.1 187.544 408.1C217.244 408.1 228.404 385.78 228.764 365.08C229.124 343.84 217.244 320.08 187.544 320.08ZM293.412 427H269.652V301.18H360.192V324.04H293.412V358.42H356.592V380.38H293.412V427ZM414.732 427V322.6H374.772V301C411.132 301 441.912 301 478.452 301V322.6H438.492V427H414.732ZM602.694 427.18V335.74L561.654 390.46H556.974L516.834 335.56V427.18H493.074V301.18H520.434L559.854 355.36L599.274 301.18H626.454V427.18H602.694ZM742.772 403.6V427H648.452C648.452 385.06 648.452 342.94 648.452 301H742.772V324.04H672.032V353.02H740.252V375.16H672.032V403.6H742.772ZM847.804 379.12V300.82H871.564V427H856.804V427.18L790.564 342.04V427H766.804V301H786.064L847.804 379.12ZM884.144 341.5L892.784 301H915.464L901.424 341.5H884.144ZM1026.37 321.7L1007.47 331.42C1003.15 324.22 991.271 317.38 977.591 317.38C959.951 317.38 951.491 324.76 951.491 334.12C951.491 345.1 964.451 348.16 979.571 349.96C1005.85 353.2 1030.33 360.04 1030.33 390.1C1030.33 418.18 1005.49 430.24 977.411 430.24C951.671 430.24 931.871 422.32 922.511 399.28L942.311 389.02C947.891 402.88 962.471 409 977.771 409C992.711 409 1006.75 403.78 1006.75 390.1C1006.75 378.22 994.331 373.36 977.591 371.56C951.851 368.5 928.091 361.66 928.091 333.4C928.091 307.48 953.651 296.86 976.871 296.68C996.491 296.68 1016.83 302.26 1026.37 321.7Z" fill="url(#paint2_linear_204_341)"/>
<path d="M214.685 505.32H200.975V500.845H233.328V505.32H219.618V541H214.685V505.32ZM268.3 541V500.845H296.523V505.435H273.234V517.997H295.548V522.644H273.234V536.239H297.441V541H268.3ZM367.342 535.665C363.326 539.681 358.336 541.631 352.427 541.631C345.716 541.631 340.553 539.681 336.939 535.723C333.325 531.764 331.49 526.889 331.49 521.152C331.432 517.481 332.178 514.096 333.669 510.999C335.161 507.901 337.513 505.377 340.782 503.312C343.995 501.247 347.896 500.214 352.427 500.214C358.106 500.214 362.982 502.222 367.112 506.238L363.671 509.45C360.63 506.467 356.902 504.976 352.427 504.976C347.265 504.976 343.306 506.582 340.553 509.679C337.8 512.834 336.423 516.62 336.48 521.095C336.538 525.569 337.914 529.298 340.668 532.338C343.364 535.378 347.265 536.87 352.427 536.87C356.902 536.87 360.745 535.321 363.843 532.223L367.342 535.665ZM403.307 500.845H406.806L431.415 531.592V500.845H436.348V541H432.906L408.24 510.368V541H403.307V500.845ZM493.638 500.157C500.063 500.214 505.054 502.28 508.61 506.352C512.167 510.483 513.945 515.358 513.945 521.037C513.945 523.734 513.486 526.315 512.626 528.724C511.765 531.191 510.503 533.428 508.897 535.378C507.291 537.329 505.168 538.935 502.53 540.082C499.891 541.229 496.908 541.803 493.581 541.803C490.254 541.803 487.213 541.229 484.575 540.082C481.936 538.935 479.756 537.329 478.15 535.378C476.544 533.428 475.282 531.191 474.421 528.782C473.561 526.372 473.159 523.791 473.159 521.037C473.159 515.072 474.995 510.138 478.724 506.123C482.452 502.165 487.443 500.157 493.638 500.157ZM508.954 521.037C508.954 518.227 508.438 515.645 507.405 513.236C506.316 510.827 504.595 508.819 502.185 507.213C499.776 505.607 496.965 504.804 493.638 504.746C488.705 504.746 484.919 506.352 482.223 509.45C479.469 512.548 478.15 516.448 478.15 521.037C478.15 525.512 479.469 529.298 482.165 532.395C484.804 535.55 488.648 537.099 493.638 537.099C498.571 537.099 502.357 535.55 504.996 532.338C507.635 529.183 508.954 525.397 508.954 521.037ZM555.74 500.845V536.354H577.595V541H550.749V500.845H555.74ZM629.149 500.157C635.573 500.214 640.564 502.28 644.12 506.352C647.677 510.483 649.455 515.358 649.455 521.037C649.455 523.734 648.996 526.315 648.136 528.724C647.275 531.191 646.013 533.428 644.407 535.378C642.801 537.329 640.679 538.935 638.04 540.082C635.401 541.229 632.418 541.803 629.091 541.803C625.764 541.803 622.724 541.229 620.085 540.082C617.446 538.935 615.267 537.329 613.66 535.378C612.054 533.428 610.792 531.191 609.932 528.782C609.071 526.372 608.67 523.791 608.67 521.037C608.67 515.072 610.505 510.138 614.234 506.123C617.963 502.165 622.953 500.157 629.149 500.157ZM644.465 521.037C644.465 518.227 643.948 515.645 642.916 513.236C641.826 510.827 640.105 508.819 637.696 507.213C635.286 505.607 632.476 504.804 629.149 504.746C624.215 504.746 620.429 506.352 617.733 509.45C614.98 512.548 613.66 516.448 613.66 521.037C613.66 525.512 614.98 529.298 617.676 532.395C620.315 535.55 624.158 537.099 629.149 537.099C634.082 537.099 637.868 535.55 640.507 532.338C643.145 529.183 644.465 525.397 644.465 521.037ZM719.53 506.066L716.662 509.393C715.113 507.901 713.278 506.754 711.155 505.951C708.975 505.148 706.853 504.689 704.788 504.689C699.797 504.689 695.897 506.295 693.086 509.507C690.218 512.72 688.841 516.62 688.841 521.267C688.841 525.684 690.218 529.413 692.971 532.453C695.724 535.55 699.74 537.042 704.903 537.042C709.033 537.042 712.704 535.723 715.859 532.969V523.447H703.354V519.03H720.391V534.919C716.146 539.509 710.926 541.746 704.845 541.746C701.403 541.746 698.306 541.229 695.552 540.082C692.799 538.992 690.619 537.501 688.956 535.55C687.292 533.657 686.03 531.478 685.17 529.068C684.309 526.659 683.908 524.02 683.908 521.267C683.85 515.129 685.743 510.081 689.529 506.066C693.315 502.05 698.363 500.042 704.788 500.042C710.524 500.042 715.458 502.05 719.53 506.066ZM757.684 541V500.845H762.675V541H757.684ZM815.704 500.845H821.325L839.337 541H833.945L829.987 532.166H807.042L803.141 541H797.691L815.704 500.845ZM828.037 527.577L818.514 505.893L808.992 527.577H828.037Z" fill="white"/>
<path d="M214.685 505.32H200.975V500.845H233.328V505.32H219.618V541H214.685V505.32ZM268.3 541V500.845H296.523V505.435H273.234V517.997H295.548V522.644H273.234V536.239H297.441V541H268.3ZM367.342 535.665C363.326 539.681 358.336 541.631 352.427 541.631C345.716 541.631 340.553 539.681 336.939 535.723C333.325 531.764 331.49 526.889 331.49 521.152C331.432 517.481 332.178 514.096 333.669 510.999C335.161 507.901 337.513 505.377 340.782 503.312C343.995 501.247 347.896 500.214 352.427 500.214C358.106 500.214 362.982 502.222 367.112 506.238L363.671 509.45C360.63 506.467 356.902 504.976 352.427 504.976C347.265 504.976 343.306 506.582 340.553 509.679C337.8 512.834 336.423 516.62 336.48 521.095C336.538 525.569 337.914 529.298 340.668 532.338C343.364 535.378 347.265 536.87 352.427 536.87C356.902 536.87 360.745 535.321 363.843 532.223L367.342 535.665ZM403.307 500.845H406.806L431.415 531.592V500.845H436.348V541H432.906L408.24 510.368V541H403.307V500.845ZM493.638 500.157C500.063 500.214 505.054 502.28 508.61 506.352C512.167 510.483 513.945 515.358 513.945 521.037C513.945 523.734 513.486 526.315 512.626 528.724C511.765 531.191 510.503 533.428 508.897 535.378C507.291 537.329 505.168 538.935 502.53 540.082C499.891 541.229 496.908 541.803 493.581 541.803C490.254 541.803 487.213 541.229 484.575 540.082C481.936 538.935 479.756 537.329 478.15 535.378C476.544 533.428 475.282 531.191 474.421 528.782C473.561 526.372 473.159 523.791 473.159 521.037C473.159 515.072 474.995 510.138 478.724 506.123C482.452 502.165 487.443 500.157 493.638 500.157ZM508.954 521.037C508.954 518.227 508.438 515.645 507.405 513.236C506.316 510.827 504.595 508.819 502.185 507.213C499.776 505.607 496.965 504.804 493.638 504.746C488.705 504.746 484.919 506.352 482.223 509.45C479.469 512.548 478.15 516.448 478.15 521.037C478.15 525.512 479.469 529.298 482.165 532.395C484.804 535.55 488.648 537.099 493.638 537.099C498.571 537.099 502.357 535.55 504.996 532.338C507.635 529.183 508.954 525.397 508.954 521.037ZM555.74 500.845V536.354H577.595V541H550.749V500.845H555.74ZM629.149 500.157C635.573 500.214 640.564 502.28 644.12 506.352C647.677 510.483 649.455 515.358 649.455 521.037C649.455 523.734 648.996 526.315 648.136 528.724C647.275 531.191 646.013 533.428 644.407 535.378C642.801 537.329 640.679 538.935 638.04 540.082C635.401 541.229 632.418 541.803 629.091 541.803C625.764 541.803 622.724 541.229 620.085 540.082C617.446 538.935 615.267 537.329 613.66 535.378C612.054 533.428 610.792 531.191 609.932 528.782C609.071 526.372 608.67 523.791 608.67 521.037C608.67 515.072 610.505 510.138 614.234 506.123C617.963 502.165 622.953 500.157 629.149 500.157ZM644.465 521.037C644.465 518.227 643.948 515.645 642.916 513.236C641.826 510.827 640.105 508.819 637.696 507.213C635.286 505.607 632.476 504.804 629.149 504.746C624.215 504.746 620.429 506.352 617.733 509.45C614.98 512.548 613.66 516.448 613.66 521.037C613.66 525.512 614.98 529.298 617.676 532.395C620.315 535.55 624.158 537.099 629.149 537.099C634.082 537.099 637.868 535.55 640.507 532.338C643.145 529.183 644.465 525.397 644.465 521.037ZM719.53 506.066L716.662 509.393C715.113 507.901 713.278 506.754 711.155 505.951C708.975 505.148 706.853 504.689 704.788 504.689C699.797 504.689 695.897 506.295 693.086 509.507C690.218 512.72 688.841 516.62 688.841 521.267C688.841 525.684 690.218 529.413 692.971 532.453C695.724 535.55 699.74 537.042 704.903 537.042C709.033 537.042 712.704 535.723 715.859 532.969V523.447H703.354V519.03H720.391V534.919C716.146 539.509 710.926 541.746 704.845 541.746C701.403 541.746 698.306 541.229 695.552 540.082C692.799 538.992 690.619 537.501 688.956 535.55C687.292 533.657 686.03 531.478 685.17 529.068C684.309 526.659 683.908 524.02 683.908 521.267C683.85 515.129 685.743 510.081 689.529 506.066C693.315 502.05 698.363 500.042 704.788 500.042C710.524 500.042 715.458 502.05 719.53 506.066ZM757.684 541V500.845H762.675V541H757.684ZM815.704 500.845H821.325L839.337 541H833.945L829.987 532.166H807.042L803.141 541H797.691L815.704 500.845ZM828.037 527.577L818.514 505.893L808.992 527.577H828.037Z" fill="url(#paint3_linear_204_341)"/>
<defs>
<linearGradient id="paint0_linear_204_341" x1="631.25" y1="272" x2="409.75" y2="272" gradientUnits="userSpaceOnUse">
<stop stop-color="white"/>
<stop offset="1" stop-color="white"/>
</linearGradient>
<linearGradient id="paint1_linear_204_341" x1="631.25" y1="272" x2="409.75" y2="272" gradientUnits="userSpaceOnUse">
<stop stop-color="white"/>
<stop offset="1" stop-color="white"/>
</linearGradient>
<linearGradient id="paint2_linear_204_341" x1="1040.5" y1="472" x2="0.5" y2="472" gradientUnits="userSpaceOnUse">
<stop stop-color="white"/>
<stop offset="1" stop-color="white"/>
</linearGradient>
<linearGradient id="paint3_linear_204_341" x1="841" y1="565" x2="200" y2="565" gradientUnits="userSpaceOnUse">
<stop stop-color="white"/>
<stop offset="1" stop-color="white"/>
</linearGradient>
</defs>
</svg>
